HIERARCHY
ROOT Hips
{
 OFFSET 0.000000 0.000000 0.000000
 CHANNELS 6 Xposition Yposition Zposition Yrotation Xrotation Zrotation
 JOINT Chest
 {
  OFFSET 0.000000 9.585900 0.002600
  CHANNELS 3 Yrotation Xrotation Zrotation
  JOINT Chest2
  {
   OFFSET 0.000000 9.601200 -0.005300
   CHANNELS 3 Yrotation Xrotation Zrotation
   JOINT Chest3
   {
    OFFSET 0.000000 9.561800 0.000000
    CHANNELS 3 Yrotation Xrotation Zrotation
    JOINT Chest4
    {
     OFFSET 0.000000 9.552100 0.000000
     CHANNELS 3 Yrotation Xrotation Zrotation
     JOINT Neck
     {
      OFFSET 0.000000 14.453000 0.000000
      CHANNELS 3 Yrotation Xrotation Zrotation
      JOINT Head
      {
       OFFSET 0.000000 8.936500 -0.011300
       CHANNELS 3 Yrotation Xrotation Zrotation
       End Site
       {
        OFFSET 0.000000 17.073600 -0.006000
       }
      }
     }
     JOINT RightCollar
     {
      OFFSET -2.921100 9.558500 0.000000
      CHANNELS 3 Yrotation Xrotation Zrotation
      JOINT RightShoulder
      {
       OFFSET -13.519700 0.000000 0.000000
       CHANNELS 3 Yrotation Xrotation Zrotation
       JOINT RightElbow
       {
        OFFSET 0.000000 -29.696600 0.000000
        CHANNELS 3 Yrotation Xrotation Zrotation
        JOINT RightWrist
        {
         OFFSET 0.000000 -24.004700 0.000000
         CHANNELS 3 Yrotation Xrotation Zrotation
         End Site
         {
          OFFSET 0.000000 -17.728500 0.000000
         }
        }
       }
      }
     }
     JOINT LeftCollar
     {
      OFFSET 2.921100 9.558500 0.000000
      CHANNELS 3 Yrotation Xrotation Zrotation
      JOINT LeftShoulder
      {
       OFFSET 13.519700 0.000000 0.000000
       CHANNELS 3 Yrotation Xrotation Zrotation
       JOINT LeftElbow
       {
        OFFSET 0.000000 -29.696600 0.000000
        CHANNELS 3 Yrotation Xrotation Zrotation
        JOINT LeftWrist
        {
         OFFSET 0.000000 -24.004700 0.000000
         CHANNELS 3 Yrotation Xrotation Zrotation
         End Site
         {
          OFFSET 0.000000 -17.728500 0.000000
         }
        }
       }
      }
     }
    }
   }
  }
 }
 JOINT RightHip
 {
  OFFSET -7.771700 -0.012900 -0.001300
  CHANNELS 3 Yrotation Xrotation Zrotation
  JOINT RightKnee
  {
   OFFSET 0.000000 -40.869800 0.001200
   CHANNELS 3 Yrotation Xrotation Zrotation
   JOINT RightAnkle
   {
    OFFSET 0.000000 -39.717900 0.002100
    CHANNELS 3 Yrotation Xrotation Zrotation
    JOINT RightToe
    {
     OFFSET 0.000000 -4.965400 11.033500
     CHANNELS 3 Yrotation Xrotation Zrotation
     End Site
     {
      OFFSET 0.000000 -1.423100 5.872300
     }
    }
   }
  }
 }
 JOINT LeftHip
 {
  OFFSET 7.771700 -0.012900 -0.001300
  CHANNELS 3 Yrotation Xrotation Zrotation
  JOINT LeftKnee
  {
   OFFSET 0.000000 -40.869800 0.001200
   CHANNELS 3 Yrotation Xrotation Zrotation
   JOINT LeftAnkle
   {
    OFFSET 0.000000 -39.717900 0.002100
    CHANNELS 3 Yrotation Xrotation Zrotation
    JOINT LeftToe
    {
     OFFSET 0.000000 -4.965400 11.033500
     CHANNELS 3 Yrotation Xrotation Zrotation
     End Site
     {
      OFFSET 0.000000 -1.423100 5.872300
     }
    }
   }
  }
 }
}
MOTION
Frames: 8
Frame Time: 0.008333
0.000000 85.388000 0.000000 0.000000 -5.767877 0.000000 0.000000 11.653817 0.000000 0.000000 -5.885947 0.000000 0.000000 -0.000000 0.000000 0.000000 -0.000000 0.000000 0.000000 12.528835 0.000000 0.000000 0.711642 0.000000 0.000000 -0.000000 0.000000 0.000000 0.000000 -90.000000 0.000000 -2.309062 0.000000 0.000000 2.309062 0.000000 0.000000 -0.000000 0.000000 0.000000 -0.000000 90.000000 0.000000 -2.309062 0.000000 0.000000 2.309062 0.000000 0.000000 8.520406 0.000000 0.000000 1.905762 0.000000 -0.000000 -4.658285 0.000000 0.000000 -0.000000 0.000000 0.000000 8.520406 0.000000 0.000000 1.905762 0.000000 -0.000000 -4.658285 0.000000 0.000000 -0.000000 0.000000
-27.112746 53.013362 2.954431 -177.376719 -14.966065 -2.267912 0.439715 15.133268 0.554736 0.034199 1.394641 0.056308 0.058506 2.347711 0.095196 0.396320 13.504699 0.590492 0.337533 18.929280 4.093495 -0.626252 -5.693124 4.324202 0.531685 -0.020260 2.813456 0.872739 -7.989435 -5.910992 -70.350389 -79.574807 100.467766 -6.394169 -16.659370 -12.364356 -5.544110 -0.252863 -0.270439 3.561078 -7.159731 10.102625 65.716379 -65.923650 -102.747649 1.111853 -9.030383 7.245611 1.250362 -63.234701 10.933694 -178.721819 86.297410 179.393448 -12.220440 -22.201639 14.069170 0.004549 -0.049762 0.042040 4.947338 -61.911506 -3.963967 120.768192 78.235940 118.780264 -6.602137 -19.621117 -1.164323 0.039469 0.152381 0.013593
-27.112497 53.012718 2.956106 -177.381165 -14.963387 -2.274286 0.462718 15.145967 0.564226 0.036134 1.397933 0.056358 0.061665 2.353051 0.095343 0.414981 13.518244 0.592455 0.327976 18.908532 4.093866 -0.638646 -5.718205 4.326139 0.493558 -0.060884 2.824730 0.874526 -7.986114 -5.911669 -70.263726 -79.571825 100.387758 -6.392264 -16.679379 -12.371123 -5.589900 -0.295223 -0.234405 3.560710 -7.162088 10.092107 65.686470 -65.943856 -102.724909 1.122327 -9.037408 7.253240 1.238877 -63.236276 10.916966 -178.956936 86.296763 179.116446 -11.777906 -22.224730 13.978218 0.017671 -0.077116 0.028916 4.935335 -61.915961 -3.946375 120.754236 78.237298 118.767790 -6.604009 -19.621013 -1.166671 0.040285 0.154425 0.014748
-27.113595 53.012050 2.957690 -177.382867 -14.962789 -2.273945 0.501619 15.173241 0.570533 0.040875 1.405101 0.056530 0.045297 2.342665 0.098068 0.483690 13.569087 0.594144 0.259109 18.840324 4.111528 -0.644227 -5.732941 4.321943 0.402377 -0.146721 2.840934 0.886395 -7.973481 -5.905649 -70.190152 -79.570341 100.310744 -6.389479 -16.665058 -12.379645 -5.684089 -0.377948 -0.180454 3.533989 -7.175093 10.100917 65.663053 -65.943065 -102.684578 1.121640 -9.033168 7.242972 1.236933 -63.240419 10.920024 -178.751650 86.297297 179.316763 -11.610190 -22.222177 13.925750 0.018230 -0.084663 0.028474 4.935187 -61.917916 -3.943346 120.748554 78.238253 118.760359 -6.608765 -19.621397 -1.167194 0.042189 0.156561 0.017676
-27.115036 53.011593 2.958577 -177.389257 -14.967538 -2.270379 0.517308 15.183903 0.570169 0.047481 1.410389 0.056314 0.078627 2.374057 0.095787 0.481191 13.560826 0.601302 0.249023 18.824900 4.107508 -0.667722 -5.757859 4.331286 0.354813 -0.188404 2.844466 0.898583 -7.962006 -5.895215 -70.111879 -79.571228 100.229638 -6.379793 -16.651205 -12.379938 -5.727859 -0.422074 -0.142557 3.528404 -7.169267 10.085979 65.648443 -65.966694 -102.688853 1.085558 -9.017626 7.206643 1.241037 -63.241291 10.942185 -178.201319 86.299125 179.879319 -11.613987 -22.204004 13.905268 0.011717 -0.080913 0.032679 4.946673 -61.914526 -3.947939 120.763741 78.240195 118.775616 -6.606484 -19.621396 -1.168134 0.041579 0.154896 0.019727
-27.115024 53.011290 2.959243 -177.391256 -14.973273 -2.275709 0.546479 15.203784 0.580384 0.044593 1.411017 0.056962 0.069941 2.369274 0.097656 0.512929 13.584914 0.602935 0.239712 18.808346 4.103765 -0.682879 -5.789501 4.320592 0.320268 -0.235647 2.835971 0.890971 -7.948038 -5.876214 -70.024512 -79.569258 100.148712 -6.370665 -16.631663 -12.379422 -5.765919 -0.466305 -0.104737 3.518603 -7.162736 10.072823 65.629480 -65.982131 -102.694720 1.082568 -9.020188 7.203164 1.235149 -63.236275 10.942799 -178.100527 86.298831 179.958252 -11.415339 -22.206594 13.866535 0.017446 -0.087633 0.028213 4.941363 -61.911092 -3.938210 120.762553 78.238252 118.777731 -6.607271 -19.621451 -1.169998 0.042514 0.153143 0.019954
-27.115048 53.011266 2.959258 -177.392084 -14.982440 -2.279677 0.573489 15.226503 0.588861 0.047053 1.415040 0.057162 0.056486 2.362232 0.099968 0.542672 13.605911 0.603816 0.224739 18.787951 4.102575 -0.698567 -5.812184 4.322554 0.280552 -0.274063 2.840779 0.898460 -7.939100 -5.867125 -69.983974 -79.574823 100.105340 -6.365440 -16.602613 -12.373335 -5.798905 -0.509716 -0.068025 3.499317 -7.164519 10.072904 65.598372 -65.981139 -102.682164 1.087746 -9.028484 7.204454 1.232055 -63.226592 10.939879 -178.107622 86.299727 179.941012 -11.307241 -22.210700 13.841699 0.020202 -0.083309 0.026653 4.935181 -61.902731 -3.929858 120.759818 78.238570 118.778847 -6.606891 -19.623651 -1.173793 0.043987 0.153563 0.020802
-27.115542 53.011239 2.959772 -177.389064 -14.987330 -2.279770 0.589697 15.240418 0.592901 0.048661 1.417816 0.057377 0.082793 2.385255 0.097227 0.535434 13.598480 0.611048 0.211570 18.767098 4.099427 -0.716263 -5.826336 4.331097 0.243379 -0.304336 2.846162 0.905362 -7.934456 -5.864502 -69.943204 -79.579880 100.067225 -6.361866 -16.579430 -12.367225 -5.829488 -0.547866 -0.041577 3.478810 -7.168022 10.082582 65.570583 -65.972760 -102.680875 1.096002 -9.041561 7.233999 1.252993 -63.225812 10.961567 -177.396502 86.304157 -179.305914 -11.576740 -22.188353 13.879993 0.008554 -0.053134 0.037322 4.936817 -61.901236 -3.932643 120.779182 78.241967 118.802087 -6.608429 -19.620580 -1.175255 0.046899 0.148341 0.021799
